<?xml version="1.0" encoding="utf-8"?>
<!-- Generator: Adobe Illustrator 23.0.0, SVG Export Plug-In . SVG Version: 6.00 Build 0)  -->
<svg version="1.1" id="PC_Logo_Slogan" xmlns="http://www.w3.org/2000/svg" xmlns:xlink="http://www.w3.org/1999/xlink" x="0px"
	 y="0px" viewBox="0 0 171.6 210" style="enable-background:new 0 0 171.6 210;" xml:space="preserve">
<style type="text/css">
	.st0{fill:#343A40;}
	.st1{fill:#28A745;}
</style>
<g id="Leading_the_Way">
	<g>
		<path class="st0" d="M35.7,207.1v-8.8h2v7H42v1.8H35.7z"/>
		<path class="st0" d="M45.7,207.2c-0.5,0-1-0.1-1.5-0.3s-0.8-0.4-1.1-0.7c-0.3-0.3-0.5-0.7-0.7-1.1c-0.2-0.4-0.2-0.8-0.2-1.3
			s0.1-0.9,0.2-1.3c0.2-0.4,0.4-0.8,0.7-1.1c0.3-0.3,0.7-0.6,1.1-0.7c0.4-0.2,0.9-0.3,1.5-0.3s1,0.1,1.5,0.3
			c0.4,0.2,0.8,0.4,1.1,0.7c0.3,0.3,0.5,0.7,0.7,1.1c0.2,0.4,0.2,0.8,0.2,1.3c0,0.1,0,0.2,0,0.3s0,0.2,0,0.3h-4.8
			c0,0.4,0.2,0.8,0.5,1c0.3,0.2,0.6,0.3,1,0.3c0.3,0,0.6-0.1,0.8-0.2c0.3-0.1,0.5-0.3,0.5-0.6l1.7,0.5c-0.3,0.5-0.7,0.9-1.2,1.3
			C47.1,207.1,46.5,207.2,45.7,207.2z M47.1,203.2c0-0.4-0.2-0.7-0.4-1c-0.3-0.2-0.6-0.4-1-0.4s-0.7,0.1-1,0.4
			c-0.3,0.2-0.4,0.6-0.4,1H47.1z"/>
		<path class="st0" d="M52,207.2c-0.3,0-0.6-0.1-0.9-0.2c-0.3-0.1-0.5-0.2-0.7-0.4c-0.2-0.2-0.4-0.4-0.5-0.7s-0.2-0.5-0.2-0.8
			s0.1-0.6,0.2-0.9c0.1-0.3,0.3-0.5,0.6-0.7c0.2-0.2,0.5-0.3,0.9-0.4c0.3-0.1,0.7-0.2,1.1-0.2c0.3,0,0.5,0,0.8,0.1
			c0.3,0,0.5,0.1,0.7,0.2v-0.3c0-0.8-0.4-1.1-1.3-1.1c-0.4,0-0.7,0.1-1,0.2c-0.3,0.1-0.7,0.3-1,0.5l-0.6-1.2
			c0.4-0.3,0.9-0.5,1.3-0.6c0.5-0.1,1-0.2,1.5-0.2c1,0,1.8,0.2,2.3,0.7s0.8,1.1,0.8,2v1.7c0,0.2,0,0.3,0.1,0.4
			c0.1,0.1,0.2,0.1,0.3,0.1v1.7c-0.2,0-0.3,0.1-0.5,0.1c-0.1,0-0.3,0-0.4,0c-0.4,0-0.7-0.1-0.8-0.2c-0.2-0.1-0.3-0.4-0.4-0.6v-0.3
			c-0.3,0.4-0.6,0.7-1,0.9C52.9,207.1,52.4,207.2,52,207.2z M52.6,205.8c0.2,0,0.4,0,0.6-0.1c0.2-0.1,0.4-0.2,0.5-0.3
			c0.2-0.1,0.3-0.3,0.3-0.5v-0.6c-0.2-0.1-0.4-0.1-0.6-0.2c-0.2,0-0.4-0.1-0.6-0.1c-0.4,0-0.7,0.1-0.9,0.2c-0.2,0.2-0.4,0.4-0.4,0.6
			c0,0.2,0.1,0.4,0.3,0.6C52.1,205.7,52.3,205.8,52.6,205.8z"/>
		<path class="st0" d="M60.1,207.2c-0.4,0-0.9-0.1-1.2-0.3c-0.4-0.2-0.7-0.4-1-0.7c-0.3-0.3-0.5-0.7-0.6-1.1
			c-0.2-0.4-0.2-0.9-0.2-1.4s0.1-0.9,0.2-1.3c0.1-0.4,0.3-0.8,0.6-1.1c0.3-0.3,0.6-0.5,0.9-0.7c0.4-0.2,0.7-0.3,1.2-0.3
			s0.9,0.1,1.2,0.3c0.4,0.2,0.7,0.5,0.9,0.9V198h2v6.8c0,0.2,0,0.3,0.1,0.4c0.1,0.1,0.2,0.1,0.3,0.1v1.7c-0.2,0-0.3,0.1-0.5,0.1
			c-0.1,0-0.3,0-0.4,0c-0.3,0-0.6-0.1-0.8-0.2c-0.2-0.1-0.3-0.4-0.4-0.6V206c-0.2,0.4-0.5,0.7-0.9,0.9
			C61,207.1,60.6,207.2,60.1,207.2z M60.7,205.5c0.3,0,0.5-0.1,0.8-0.2c0.3-0.2,0.4-0.4,0.6-0.7v-1.4c-0.1-0.3-0.3-0.6-0.6-0.8
			c-0.3-0.2-0.6-0.3-0.9-0.3c-0.2,0-0.4,0-0.6,0.1c-0.2,0.1-0.3,0.2-0.5,0.4c-0.1,0.2-0.2,0.3-0.3,0.5s-0.1,0.4-0.1,0.7
			c0,0.2,0,0.5,0.1,0.7s0.2,0.4,0.3,0.5s0.3,0.3,0.5,0.3C60.2,205.5,60.4,205.5,60.7,205.5z"/>
		<path class="st0" d="M65.6,199.8V198h2v1.8H65.6z M65.6,207.1v-6.5h2v6.5H65.6z"/>
		<path class="st0" d="M75.3,207.1h-2v-3.7c0-0.4-0.1-0.7-0.2-0.9c-0.2-0.2-0.4-0.3-0.6-0.3c-0.1,0-0.3,0-0.4,0.1s-0.3,0.1-0.4,0.2
			c-0.1,0.1-0.3,0.2-0.4,0.4c-0.1,0.1-0.2,0.3-0.2,0.5v3.7h-2v-6.5h1.8v1.1c0.2-0.4,0.6-0.7,1-0.9s0.9-0.3,1.5-0.3
			c0.4,0,0.8,0.1,1,0.2c0.3,0.2,0.5,0.4,0.6,0.6c0.1,0.2,0.2,0.5,0.3,0.8c0,0.3,0.1,0.6,0.1,0.8v4.2L75.3,207.1L75.3,207.1z"/>
		<path class="st0" d="M79.1,207.1c-0.4,0-0.8-0.1-1.2-0.3c-0.4-0.2-0.7-0.4-0.9-0.7c-0.3-0.3-0.5-0.6-0.6-1s-0.2-0.8-0.2-1.3
			s0.1-0.9,0.2-1.3c0.1-0.4,0.4-0.8,0.6-1.1c0.3-0.3,0.6-0.5,1-0.7s0.8-0.3,1.2-0.3c0.5,0,0.9,0.1,1.3,0.3s0.7,0.5,0.9,0.9v-1.1h1.7
			v6.1c0,0.5-0.1,0.9-0.3,1.3c-0.2,0.4-0.4,0.7-0.8,1c-0.3,0.3-0.7,0.5-1.2,0.6s-1,0.2-1.5,0.2c-0.7,0-1.3-0.1-1.8-0.3
			s-0.9-0.5-1.3-1l1.1-1.1c0.2,0.3,0.5,0.5,0.9,0.7s0.7,0.2,1.1,0.2c0.2,0,0.5,0,0.7-0.1s0.4-0.2,0.6-0.3s0.3-0.3,0.4-0.5
			s0.1-0.5,0.1-0.8V206c-0.2,0.4-0.5,0.6-0.9,0.8C79.9,207,79.5,207.1,79.1,207.1z M79.8,205.5c0.3,0,0.6-0.1,0.8-0.3
			c0.2-0.2,0.4-0.4,0.6-0.7v-1.4c-0.1-0.3-0.3-0.6-0.6-0.8c-0.3-0.2-0.6-0.3-0.9-0.3c-0.2,0-0.4,0-0.6,0.1s-0.3,0.2-0.5,0.4
			c-0.1,0.2-0.2,0.3-0.3,0.6c-0.1,0.2-0.1,0.4-0.1,0.7c0,0.2,0,0.5,0.1,0.7s0.2,0.4,0.3,0.5c0.1,0.1,0.3,0.3,0.5,0.3
			C79.3,205.5,79.5,205.5,79.8,205.5z"/>
		<path class="st0" d="M91.6,206.7c-0.3,0.1-0.6,0.2-0.9,0.3c-0.4,0.1-0.7,0.1-1.1,0.1c-0.2,0-0.5,0-0.7-0.1s-0.4-0.2-0.6-0.3
			s-0.3-0.3-0.4-0.5s-0.1-0.5-0.1-0.8V202H87v-1.5h0.8v-2.1h2v2.1h1.3v1.5h-1.3v2.7c0,0.2,0.1,0.4,0.2,0.5s0.2,0.1,0.4,0.1
			c0.1,0,0.3,0,0.5-0.1c0.2,0,0.3-0.1,0.4-0.2L91.6,206.7z"/>
		<path class="st0" d="M98.8,207.1h-2v-3.7c0-0.4-0.1-0.7-0.2-0.9c-0.2-0.2-0.4-0.3-0.7-0.3c-0.1,0-0.2,0-0.4,0.1
			c-0.1,0.1-0.3,0.1-0.4,0.2c-0.1,0.1-0.2,0.2-0.4,0.4c-0.1,0.1-0.2,0.3-0.2,0.5v3.7h-2V198h2v3.6c0.2-0.4,0.6-0.7,1-0.9
			s0.8-0.3,1.3-0.3c0.4,0,0.8,0.1,1.1,0.2c0.3,0.2,0.5,0.3,0.6,0.6c0.1,0.2,0.2,0.5,0.3,0.8c0,0.3,0.1,0.6,0.1,0.9v4.2H98.8z"/>
		<path class="st0" d="M103.3,207.2c-0.5,0-1-0.1-1.5-0.3c-0.4-0.2-0.8-0.4-1.1-0.7c-0.3-0.3-0.5-0.7-0.7-1.1
			c-0.2-0.4-0.2-0.8-0.2-1.3s0.1-0.9,0.2-1.3c0.2-0.4,0.4-0.8,0.7-1.1c0.3-0.3,0.7-0.6,1.1-0.7c0.4-0.2,0.9-0.3,1.5-0.3
			s1,0.1,1.5,0.3c0.4,0.2,0.8,0.4,1.1,0.7s0.5,0.7,0.7,1.1c0.2,0.4,0.2,0.8,0.2,1.3c0,0.1,0,0.2,0,0.3s0,0.2,0,0.3h-4.8
			c0,0.4,0.2,0.8,0.5,1s0.6,0.3,1,0.3c0.3,0,0.6-0.1,0.8-0.2c0.3-0.1,0.5-0.3,0.5-0.6l1.7,0.5c-0.3,0.5-0.7,0.9-1.2,1.3
			C104.6,207.1,103.9,207.2,103.3,207.2z M104.5,203.2c0-0.4-0.2-0.7-0.4-1c-0.3-0.2-0.6-0.4-1-0.4s-0.7,0.1-1,0.4
			c-0.3,0.2-0.4,0.6-0.4,1H104.5z"/>
		<path class="st0" d="M113.1,198.3h1.9l0.9,2.8l0.9-2.8h1.9l-1.5,4.1l0.9,2.4l2.2-6.5h2.2l-3.5,8.8h-1.7l-1.4-3.5l-1.4,3.5h-1.7
			l-3.5-8.8h2.2l2.2,6.5l0.9-2.4L113.1,198.3z"/>
		<path class="st0" d="M124.4,207.2c-0.3,0-0.6-0.1-0.9-0.2c-0.3-0.1-0.5-0.2-0.7-0.4s-0.4-0.4-0.5-0.7s-0.2-0.5-0.2-0.8
			s0.1-0.6,0.2-0.9c0.1-0.3,0.3-0.5,0.6-0.7c0.2-0.2,0.5-0.3,0.9-0.4c0.3-0.1,0.7-0.2,1.1-0.2c0.3,0,0.5,0,0.8,0.1
			c0.3,0,0.5,0.1,0.7,0.2v-0.3c0-0.8-0.4-1.1-1.3-1.1c-0.4,0-0.7,0.1-1,0.2c-0.3,0.1-0.7,0.3-1,0.5l-0.6-1.2
			c0.4-0.3,0.9-0.5,1.3-0.6c0.5-0.1,1-0.2,1.5-0.2c1,0,1.8,0.2,2.3,0.7c0.5,0.5,0.8,1.1,0.8,2v1.7c0,0.2,0,0.3,0.1,0.4
			c0.1,0.1,0.2,0.1,0.3,0.1v1.7c-0.2,0-0.3,0.1-0.5,0.1c-0.1,0-0.3,0-0.4,0c-0.4,0-0.7-0.1-0.8-0.2c-0.2-0.1-0.3-0.4-0.4-0.6v-0.3
			c-0.3,0.4-0.6,0.7-1,0.9C125.3,207.1,124.8,207.2,124.4,207.2z M125,205.8c0.2,0,0.4,0,0.6-0.1s0.4-0.2,0.5-0.3
			c0.2-0.1,0.3-0.3,0.3-0.5v-0.6c-0.2-0.1-0.4-0.1-0.6-0.2c-0.2,0-0.4-0.1-0.6-0.1c-0.4,0-0.7,0.1-0.9,0.2c-0.2,0.2-0.4,0.4-0.4,0.6
			c0,0.2,0.1,0.4,0.3,0.6C124.5,205.7,124.8,205.8,125,205.8z"/>
		<path class="st0" d="M129.8,208.1c0.2,0.1,0.3,0.1,0.5,0.1c0.1,0,0.3,0,0.4,0c0.2,0,0.4-0.1,0.6-0.2c0.1-0.2,0.3-0.5,0.4-0.9
			l-2.5-6.5h2.1l1.5,4.8l1.3-4.8h1.9l-2.5,7.6c-0.2,0.5-0.5,1-0.9,1.3s-1,0.5-1.6,0.5c-0.2,0-0.3,0-0.5,0s-0.3-0.1-0.5-0.1v-1.8
			L129.8,208.1L129.8,208.1z"/>
	</g>
</g>
<g id="Polk_County">
	<g>
		<path class="st0" d="M0.7,194.9v-17.2H8c0.8,0,1.6,0.2,2.3,0.5s1.3,0.8,1.8,1.3s0.9,1.2,1.2,1.9s0.4,1.4,0.4,2.1
			c0,0.8-0.1,1.5-0.4,2.2c-0.3,0.7-0.6,1.3-1.1,1.9c-0.5,0.5-1.1,1-1.7,1.3c-0.7,0.3-1.4,0.5-2.2,0.5H4.7v5.5H0.7z M4.7,185.9h3.2
			c0.5,0,0.9-0.2,1.2-0.6c0.3-0.4,0.5-1,0.5-1.8c0-0.4-0.1-0.7-0.2-1c-0.1-0.3-0.2-0.5-0.4-0.7s-0.4-0.3-0.6-0.4
			c-0.2-0.1-0.5-0.1-0.7-0.1h-3V185.9z"/>
		<path class="st0" d="M23.3,195c-1.3,0-2.4-0.2-3.5-0.7c-1-0.5-1.9-1.2-2.7-2c-0.7-0.8-1.3-1.7-1.7-2.8c-0.4-1-0.6-2.1-0.6-3.2
			c0-1.1,0.2-2.2,0.6-3.3c0.4-1,1-2,1.8-2.8s1.7-1.4,2.7-1.9s2.2-0.7,3.4-0.7c1.3,0,2.4,0.2,3.5,0.7c1,0.5,1.9,1.2,2.7,2
			c0.7,0.8,1.3,1.8,1.7,2.8c0.4,1,0.6,2.1,0.6,3.2c0,1.1-0.2,2.2-0.6,3.3c-0.4,1-1,2-1.8,2.8s-1.7,1.4-2.7,1.9
			C25.7,194.8,24.6,195,23.3,195z M18.9,186.3c0,0.7,0.1,1.3,0.3,1.9c0.2,0.6,0.5,1.2,0.9,1.7s0.8,0.9,1.4,1.2s1.2,0.4,1.9,0.4
			c0.8,0,1.4-0.2,2-0.5s1-0.7,1.4-1.2s0.6-1,0.8-1.7c0.2-0.6,0.3-1.3,0.3-1.9c0-0.7-0.1-1.3-0.3-1.9c-0.2-0.6-0.5-1.2-0.9-1.6
			c-0.4-0.5-0.9-0.9-1.4-1.1c-0.6-0.3-1.2-0.4-1.9-0.4c-0.8,0-1.4,0.1-2,0.4c-0.6,0.3-1,0.7-1.4,1.2s-0.7,1-0.8,1.7
			C18.9,185,18.9,185.7,18.9,186.3z"/>
		<path class="st0" d="M34.2,194.9v-17.2h4v13.7h8.3v3.5H34.2z"/>
		<path class="st0" d="M48.3,194.9v-17.2h4v7.4l6.3-7.4H63l-6.4,7.7l6.9,9.5h-4.6L54,188l-1.8,1.9v5.1h-3.9
			C48.3,195,48.3,194.9,48.3,194.9z"/>
		<path class="st0" d="M69.1,186.1c0-1,0.2-2.1,0.6-3.1s1-1.9,1.7-2.7s1.6-1.5,2.7-2s2.3-0.7,3.6-0.7c1.6,0,3,0.3,4.2,1
			s2.1,1.6,2.6,2.7l-3,2.1c-0.2-0.5-0.4-0.8-0.7-1.1c-0.3-0.3-0.6-0.5-1-0.7s-0.7-0.3-1.1-0.4c-0.4-0.1-0.7-0.1-1.1-0.1
			c-0.8,0-1.4,0.2-2,0.5s-1,0.7-1.4,1.2s-0.6,1-0.8,1.6c-0.2,0.6-0.3,1.2-0.3,1.9s0.1,1.3,0.3,2c0.2,0.6,0.5,1.2,0.9,1.7
			s0.9,0.9,1.4,1.1c0.6,0.3,1.2,0.4,1.9,0.4c0.4,0,0.7,0,1.1-0.1s0.7-0.2,1.1-0.4c0.3-0.2,0.7-0.4,1-0.7s0.5-0.7,0.7-1.1l3.2,1.9
			c-0.3,0.6-0.6,1.2-1.1,1.7s-1.1,0.9-1.8,1.3c-0.7,0.3-1.4,0.6-2.1,0.8s-1.5,0.3-2.2,0.3c-1.2,0-2.4-0.3-3.4-0.8s-1.9-1.2-2.7-2
			c-0.7-0.8-1.3-1.8-1.7-2.9C69.3,188.3,69.1,187.2,69.1,186.1z"/>
		<path class="st0" d="M94.1,195c-1.3,0-2.4-0.2-3.5-0.7c-1-0.5-1.9-1.2-2.7-2c-0.7-0.8-1.3-1.7-1.7-2.8c-0.4-1-0.6-2.1-0.6-3.2
			c0-1.1,0.2-2.2,0.6-3.3c0.4-1,1-2,1.8-2.8s1.7-1.4,2.7-1.9s2.2-0.7,3.4-0.7c1.3,0,2.4,0.2,3.5,0.7c1,0.5,1.9,1.2,2.7,2
			c0.7,0.8,1.3,1.8,1.7,2.8c0.4,1,0.6,2.1,0.6,3.2c0,1.1-0.2,2.2-0.6,3.3c-0.4,1-1,2-1.8,2.8s-1.7,1.4-2.7,1.9
			C96.4,194.8,95.3,195,94.1,195z M89.6,186.3c0,0.7,0.1,1.3,0.3,1.9c0.2,0.6,0.5,1.2,0.9,1.7s0.8,0.9,1.4,1.2s1.2,0.4,1.9,0.4
			c0.8,0,1.4-0.2,2-0.5s1-0.7,1.4-1.2s0.6-1,0.8-1.7c0.2-0.6,0.3-1.3,0.3-1.9c0-0.7-0.1-1.3-0.3-1.9c-0.2-0.6-0.5-1.2-0.9-1.6
			c-0.4-0.5-0.9-0.9-1.4-1.1c-0.6-0.3-1.2-0.4-1.9-0.4c-0.8,0-1.4,0.1-2,0.4c-0.6,0.3-1,0.7-1.4,1.2s-0.7,1-0.8,1.7
			C89.8,185,89.6,185.7,89.6,186.3z"/>
		<path class="st0" d="M112.3,191.5c0.7,0,1.2-0.1,1.7-0.4c0.5-0.3,0.8-0.7,1.1-1.1c0.3-0.5,0.5-1,0.6-1.6s0.2-1.2,0.2-1.8v-8.8h4
			v8.8c0,1.2-0.1,2.3-0.4,3.3s-0.8,1.9-1.4,2.7s-1.4,1.4-2.4,1.8c-1,0.4-2.1,0.7-3.4,0.7c-1.4,0-2.5-0.2-3.5-0.7s-1.8-1.1-2.4-1.9
			c-0.6-0.8-1-1.7-1.3-2.7s-0.4-2.1-0.4-3.2v-8.8h4v8.8c0,0.7,0.1,1.3,0.2,1.9c0.1,0.6,0.3,1.1,0.6,1.6c0.3,0.5,0.7,0.8,1.1,1.1
			C111,191.3,111.6,191.5,112.3,191.5z"/>
		<path class="st0" d="M126.9,185v9.8h-4v-17.2h3.1l8,10.1v-10.1h4v17.2h-3.2L126.9,185z"/>
		<path class="st0" d="M154.4,181.2h-5.2v13.7h-4v-13.7h-5.2v-3.5h14.4V181.2z"/>
		<path class="st0" d="M159.1,177.7l3.7,7.9l3.7-7.9h4.3l-6.1,11.3v5.8h-3.9V189l-6-11.3H159.1z"/>
	</g>
</g>
<g id="Logo_Group_1_">
	<g id="Buildings">
		<path id="Ruan_1_" class="st0" d="M151.3,30.1v71.8c-2.2-0.3-4.4-0.5-6.8-0.7V80.1H144V77h-0.8v-6.9l-1.8-2.1
			c-0.6-1.1-1.6-0.9-2.7-1.4v-2h-1.2v-1.5c0.3-0.3,0.5-0.7,0.5-1.2c0-0.9-0.7-1.7-1.6-1.8v-3.2h-0.6v3.2c-0.9,0.2-1.6,0.9-1.6,1.8
			c0,0.4,0.2,0.8,0.4,1.1v1.6h-1.2v2.2c-1,0.5-1.9,0.3-2.4,1.3l-2,2.1v6.9h-0.8v3.1H113V30.1h14.3v-4.2h12.2v4.2H151.3z"/>
		<path id="Principal_1_" class="st0" d="M73,76.4V64.5h1.3V53.1l3.3-3.5c1-1.6,2.4-1.2,4.1-2.1v-3.7h2v-2.6
			c-0.3-0.5-0.6-1.1-0.6-1.8c0-1.5,1.1-2.8,2.6-3V31h1v5.4c1.4,0.2,2.6,1.4,2.6,3c0,0.8-0.4,1.5-0.8,2v2.4h2v3.5
			c1.9,0.8,3.4,0.5,4.5,2.3l3,3.5v11.4h1.3v11.9l9.4,3.8V23.5h-6.4V10h-4.7L86.3,0L74.2,10h-3.9v13.5h-5.7V80L73,76.4z"/>
		<path id="Emc_1_" class="st0" d="M60.9,53.4v26.8H43.6v-2.5h-0.8v-6.9L41,68.7c-0.6-1.1-1.6-0.9-2.7-1.4v-2.1h-1.2v-1.5
			c0.3-0.3,0.5-0.7,0.5-1.2c0-0.9-0.7-1.7-1.6-1.8v-3.2h-0.6v3.2c-0.9,0.1-1.6,0.9-1.6,1.8c0,0.4,0.2,0.8,0.4,1.1v1.6H33v2.2
			c-1,0.5-1.9,0.3-2.4,1.3l-2,2.1v6.9h-0.9v3.1h-0.6v19.1c-2.2,0.1-4.3,0.2-6.4,0.4V32.2c0,0,6.2-3.8,16.7-3.8S51,31.6,51,31.6
			l6.8,21.8H60.9L60.9,53.4z"/>
	</g>
	<g id="Grass">
		<path id="Grass_Mid" class="st1" d="M163.6,128c-1.9,3.7-4.1,7.3-6.6,10.6c-6.7-1.5-13.7-2.3-20.9-2.3c-4.3,0-8.5,0.3-12.6,0.8
			c-4.9,0.6-9.7,1.7-14.3,3c-4.5,1.3-8.8,2.9-12.9,4.8c-4,1.8-7.9,4-11.6,6.3c-3.6,2.3-7,4.9-10.3,7.6c-3.1,2.7-6.1,5.6-8.9,8.6
			c-1.2,1.3-2.5,2.9-3.5,4.2c-4-1.2-8-2.6-11.8-4.3c1.2-1.5,2.5-3.3,3.8-4.8c2.8-3.3,5.8-6.5,8.9-9.4c3.2-3,6.7-5.9,10.3-8.5
			c3.7-2.7,7.6-5.1,11.6-7.3c4.2-2.3,8.5-4.3,13-6c4.6-1.8,9.4-3.2,14.3-4.4c7.7-1.8,15.8-2.7,24-2.7
			C145.7,124.4,154.8,125.7,163.6,128z"/>
		<path id="Grass_Lower" class="st1" d="M148.1,149.2c-2.6,2.6-5.4,5.1-8.4,7.4c-1.6,1.3-3.3,2.5-5.1,3.6c-2.3,0-4.5,0.2-6.7,0.4
			c-4.4,0.5-8.8,1.4-12.9,2.7c-4,1.2-7.9,2.8-11.6,4.7c-3.6,1.8-7,4-10.2,6.4c-0.1,0.1-0.3,0.2-0.4,0.3c-2.3,0.2-4.3,0.2-6.6,0.2
			c-3.6,0-7.1-0.2-10.5-0.6c2.8-2.9,5.7-5.6,8.9-8.1c3.2-2.5,6.7-4.9,10.3-6.9c3.7-2.1,7.6-4,11.6-5.5c4.2-1.6,8.5-2.9,12.9-3.8l0,0
			c4.6-0.9,9.4-1.5,14.3-1.6c0.8,0,1.7,0,2.5,0C140.2,148.3,144.2,148.6,148.1,149.2z"/>
		<g id="Grass_Top">
			<path class="st1" d="M171.6,105.6c-0.8,3.8-1.8,7.6-3.2,11.3c-10.3-2.9-21-4.4-32.2-4.4c-12.9,0-25.2,2-36.8,5.8h-0.1
				c-4.9,1.6-9.6,3.5-14.2,5.7c-4.5,2.1-8.8,4.5-13,7.2c-4,2.6-7.9,5.4-11.6,8.5c-3.6,3-7,6.2-10.3,9.6c-3.2,3.3-6.2,6.8-8.9,10.5
				c-0.5,0.6-0.9,1.2-1.3,1.8c-1.2-0.7-2.3-1.5-3.4-2.2c-2.1-1.4-4-3-6-4.6c-0.1-0.1-0.2-0.1-0.3-0.2c-2.6-2.1-5-4.4-7.3-6.8
				c2.9-0.3,5.9-0.5,8.9-0.5c1.4,0,2.7,0,4,0.1c3.2-3.8,6.7-7.5,10.3-10.9c-4.7-0.7-9.5-1.1-14.4-1.1c-6,0-12.1,0.6-17.8,1.6
				c-2.4-3.4-4.5-7.1-6.4-10.8c7.7-1.8,15.9-2.7,24.2-2.7c9,0,17.7,1.1,26,3.2c4.1-3.1,8.5-6,13-8.6c-12.2-4.2-25.3-6.5-39-6.5
				c-9.9,0-19.6,1.2-28.8,3.5c-1.3-3.7-2.3-7.6-3-11.5c1.8-0.5,3.7-0.9,5.5-1.2c0.8-0.2,1.5-0.3,2.2-0.4c1.3-0.2,2.6-0.5,3.9-0.7
				c0.7-0.1,1.3-0.2,2-0.3c0.7-0.1,1.3-0.2,2-0.3c1.5-0.2,3.1-0.4,4.6-0.5c0.2,0,0.3,0,0.5-0.1c2.1-0.2,4.3-0.3,6.4-0.4
				c0.1,0,0.3,0,0.4,0c0.9,0,1.8-0.1,2.8-0.1c0.6,0,1.1,0,1.7,0c0.5,0,1,0,1.4,0c1.2,0,2.4,0,3.5,0.1l0,0c17,0.7,33.2,4.6,47.9,11.2
				c0,0,0,0,0.1,0c4.7-2,9.6-3.7,14.6-5.1c0.7-0.2,1.4-0.4,2.1-0.6c0.4-0.1,0.8-0.2,1.1-0.3c-0.1,0-0.3,0.1-0.4,0.1
				c0.5-0.1,1-0.3,1.5-0.4c0.4-0.1,0.9-0.2,1.3-0.3c0.2-0.1,0.4-0.1,0.6-0.1c0.2-0.1,0.4-0.1,0.7-0.2c0.1,0,0.2,0,0.3-0.1
				c3.6-0.8,7.2-1.5,10.9-2c2.2-0.3,4.4-0.6,6.7-0.8c0.9-0.1,1.8-0.1,2.8-0.2c2.9-0.2,5.9-0.3,8.9-0.3c0.7,0,1.4,0,2.1,0
				c4.5,0.1,8.9,0.4,13.2,0.9C158.4,102.4,165,103.7,171.6,105.6z"/>
		</g>
	</g>
</g>
</svg>
