<?xml version="1.0" encoding="utf-8"?>
<!-- Generator: Adobe Illustrator 23.0.0, SVG Export Plug-In . SVG Version: 6.00 Build 0)  -->
<svg version="1.1" id="Text_Logo" xmlns="http://www.w3.org/2000/svg" xmlns:xlink="http://www.w3.org/1999/xlink" x="0px" y="0px"
	 viewBox="0 0 630.4 174.9" style="enable-background:new 0 0 630.4 174.9;" xml:space="preserve">
<style type="text/css">
	.st0{fill:#343A40;}
	.st1{fill:#28A745;}
</style>
<path id="K" class="st0" d="M478.3,173.1V0.6h39.9V75l63.2-74.4h44.7l-64.7,77l69,95.5H585l-48.9-69.5l-18,18.7v50.8H478.3z"/>
<path id="L" class="st0" d="M336.1,173.1V0.6H376v137.5h83.6v35H336.1z"/>
<g id="Logo_Group">
	<g id="Buildings">
		<path id="Ruan" class="st0" d="M292.8,30.1v71.8c-2.2-0.3-4.4-0.5-6.8-0.7V80.1h-0.5V77h-0.8v-6.9l-1.8-2.1
			c-0.6-1.1-1.6-0.9-2.7-1.4v-2H279v-1.5c0.3-0.3,0.5-0.7,0.5-1.2c0-0.9-0.7-1.7-1.6-1.8v-3.2h-0.6v3.2c-0.9,0.2-1.6,0.9-1.6,1.8
			c0,0.4,0.2,0.8,0.4,1.1v1.6h-1.2v2.2c-1,0.5-1.9,0.3-2.4,1.3l-2,2.1v6.9h-0.8v3.1h-15.2V30.1h14.3v-4.2H281v4.2H292.8z"/>
		<path id="Principal" class="st0" d="M214.5,76.4V64.5h1.3V53.1l3.3-3.5c1-1.6,2.4-1.2,4.1-2.1v-3.7h2v-2.6
			c-0.3-0.5-0.6-1.1-0.6-1.8c0-1.5,1.1-2.8,2.6-3V31h1v5.4c1.4,0.2,2.6,1.4,2.6,3c0,0.8-0.4,1.5-0.8,2v2.4h2v3.5
			c1.9,0.8,3.4,0.5,4.5,2.3l3,3.5v11.4h1.3v11.9l9.4,3.8V23.5h-6.4V10h-4.7L227.8,0l-12.1,10h-3.9v13.5h-5.7V80L214.5,76.4z"/>
		<path id="Emc" class="st0" d="M202.4,53.4v26.8h-17.3v-2.5h-0.8v-6.9l-1.8-2.1c-0.6-1.1-1.6-0.9-2.7-1.4v-2.1h-1.2v-1.5
			c0.3-0.3,0.5-0.7,0.5-1.2c0-0.9-0.7-1.7-1.6-1.8v-3.2h-0.6v3.2c-0.9,0.1-1.6,0.9-1.6,1.8c0,0.4,0.2,0.8,0.4,1.1v1.6h-1.2v2.2
			c-1,0.5-1.9,0.3-2.4,1.3l-2,2.1v6.9h-0.9v3.1h-0.6v19.1c-2.2,0.1-4.3,0.2-6.4,0.4V32.2c0,0,6.2-3.8,16.7-3.8s13.6,3.2,13.6,3.2
			l6.8,21.8H202.4L202.4,53.4z"/>
	</g>
	<g id="Grass">
		<path id="Grass_Mid" class="st1" d="M305.1,128c-1.9,3.7-4.1,7.3-6.6,10.6c-6.7-1.5-13.7-2.3-20.9-2.3c-4.3,0-8.5,0.3-12.6,0.8
			c-4.9,0.6-9.7,1.7-14.3,3c-4.5,1.3-8.8,2.9-12.9,4.8c-4,1.8-7.9,4-11.6,6.3c-3.6,2.3-7,4.9-10.3,7.6c-3.1,2.7-6.1,5.6-8.9,8.6
			c-1.2,1.3-2.5,2.9-3.5,4.2c-4-1.2-8-2.6-11.8-4.3c1.2-1.5,2.5-3.3,3.8-4.8c2.8-3.3,5.8-6.5,8.9-9.4c3.2-3,6.7-5.9,10.3-8.5
			c3.7-2.7,7.6-5.1,11.6-7.3c4.2-2.3,8.5-4.3,13-6c4.6-1.8,9.4-3.2,14.3-4.4c7.7-1.8,15.8-2.7,24-2.7
			C287.2,124.4,296.3,125.7,305.1,128z"/>
		<path id="Grass_Lower" class="st1" d="M289.6,149.2c-2.6,2.6-5.4,5.1-8.4,7.4c-1.6,1.3-3.3,2.5-5.1,3.6c-2.3,0-4.5,0.2-6.7,0.4
			c-4.4,0.5-8.8,1.4-12.9,2.7c-4,1.2-7.9,2.8-11.6,4.7c-3.6,1.8-7,4-10.2,6.4c-0.1,0.1-0.3,0.2-0.4,0.3c-2.3,0.2-4.3,0.2-6.6,0.2
			c-3.6,0-7.1-0.2-10.5-0.6c2.8-2.9,5.7-5.6,8.9-8.1c3.2-2.5,6.7-4.9,10.3-6.9c3.7-2.1,7.6-4,11.6-5.5c4.2-1.6,8.5-2.9,12.9-3.8l0,0
			c4.6-0.9,9.4-1.5,14.3-1.6c0.8,0,1.7,0,2.5,0C281.7,148.3,285.7,148.6,289.6,149.2z"/>
		<g id="Grass_Top">
			<path class="st1" d="M313.1,105.6c-0.8,3.8-1.8,7.6-3.2,11.3c-10.3-2.9-21-4.4-32.2-4.4c-12.9,0-25.2,2-36.8,5.8h-0.1
				c-4.9,1.6-9.6,3.5-14.2,5.7c-4.5,2.1-8.8,4.5-13,7.2c-4,2.6-7.9,5.4-11.6,8.5c-3.6,3-7,6.2-10.3,9.6c-3.2,3.3-6.2,6.8-8.9,10.5
				c-0.5,0.6-0.9,1.2-1.3,1.8c-1.2-0.7-2.3-1.5-3.4-2.2c-2.1-1.4-4-3-6-4.6c-0.1-0.1-0.2-0.1-0.3-0.2c-2.6-2.1-5-4.4-7.3-6.8
				c2.9-0.3,5.9-0.5,8.9-0.5c1.4,0,2.7,0,4,0.1c3.2-3.8,6.7-7.5,10.3-10.9c-4.7-0.7-9.5-1.1-14.4-1.1c-6,0-12.1,0.6-17.8,1.6
				c-2.4-3.4-4.5-7.1-6.4-10.8c7.7-1.8,15.9-2.7,24.2-2.7c9,0,17.7,1.1,26,3.2c4.1-3.1,8.5-6,13-8.6c-12.2-4.2-25.3-6.5-39-6.5
				c-9.9,0-19.6,1.2-28.8,3.5c-1.3-3.7-2.3-7.6-3-11.5c1.8-0.5,3.7-0.9,5.5-1.2c0.8-0.2,1.5-0.3,2.2-0.4c1.3-0.2,2.6-0.5,3.9-0.7
				c0.7-0.1,1.3-0.2,2-0.3c0.7-0.1,1.3-0.2,2-0.3c1.5-0.2,3.1-0.4,4.6-0.5c0.2,0,0.3,0,0.5-0.1c2.1-0.2,4.3-0.3,6.4-0.4
				c0.1,0,0.3,0,0.4,0c0.9,0,1.8-0.1,2.8-0.1c0.6,0,1.1,0,1.7,0c0.5,0,1,0,1.4,0c1.2,0,2.4,0,3.5,0.1l0,0c17,0.7,33.2,4.6,47.9,11.2
				c0,0,0,0,0.1,0c4.7-2,9.6-3.7,14.6-5.1c0.7-0.2,1.4-0.4,2.1-0.6c0.4-0.1,0.8-0.2,1.1-0.3c-0.1,0-0.3,0.1-0.4,0.1
				c0.5-0.1,1-0.3,1.5-0.4c0.4-0.1,0.9-0.2,1.3-0.3c0.2-0.1,0.4-0.1,0.6-0.1c0.2-0.1,0.4-0.1,0.7-0.2c0.1,0,0.2,0,0.3-0.1
				c3.6-0.8,7.2-1.5,10.9-2c2.2-0.3,4.4-0.6,6.7-0.8c0.9-0.1,1.8-0.1,2.8-0.2c2.9-0.2,5.9-0.3,8.9-0.3c0.7,0,1.4,0,2.1,0
				c4.5,0.1,8.9,0.4,13.2,0.9C299.9,102.4,306.5,103.7,313.1,105.6z"/>
		</g>
	</g>
</g>
<path id="P" class="st0" d="M0,173.1V0.6h73.6c8.3,0,15.8,1.7,22.7,5.1s12.8,7.9,17.7,13.4s8.8,11.7,11.7,18.7
	c2.8,7,4.3,14,4.3,21.1c0,7.6-1.3,14.9-4,21.9s-6.4,13.2-11.2,18.7c-4.8,5.5-10.6,9.9-17.4,13.1s-14.3,4.9-22.6,4.9h-35v55.6H0z
	 M39.9,82.7h32.6c4.7,0,8.8-2,12.2-6.1c3.4-4,5.1-10,5.1-17.7c0-4-0.5-7.5-1.6-10.5c-1.1-2.9-2.5-5.3-4.3-7.3
	c-1.8-1.9-3.8-3.4-6.1-4.3c-2.3-0.9-4.5-1.3-6.8-1.3H39.9V82.7z"/>
</svg>
